HIERARCHY
ROOT Hips
{
	OFFSET 0.0000 0.0000 0.0000
	CHANNELS 6 Xposition Yposition Zposition Zrotation Xrotation Yrotation
	JOINT Ab
	{
		OFFSET -0.0000 8.1305 -0.0000
		CHANNELS 3 Zrotation Xrotation Yrotation
		JOINT Chest
		{
			OFFSET -0.0000 26.2902 -0.0000
			CHANNELS 3 Zrotation Xrotation Yrotation
			JOINT Neck
			{
				OFFSET -0.0000 26.2902 0.0000
				CHANNELS 3 Zrotation Xrotation Yrotation
				JOINT Head
				{
					OFFSET -0.0000 10.8167 0.0000
					CHANNELS 3 Zrotation Xrotation Yrotation
					End Site
					{
						OFFSET -0.0000 16.7167 0.0000
					}
				}
			}
			JOINT LeftCollar
			{
				OFFSET -0.0000 26.2902 0.0000
				CHANNELS 3 Zrotation Xrotation Yrotation
				JOINT LeftShoulder
				{
					OFFSET 19.6667 -0.0000 0.0000
					CHANNELS 3 Zrotation Xrotation Yrotation
					JOINT LeftElbow
					{
						OFFSET 27.2190 0.0000 0.0000
						CHANNELS 3 Zrotation Xrotation Yrotation
						JOINT LeftWrist
						{
							OFFSET 30.7431 0.0000 0.0000
							CHANNELS 3 Zrotation Xrotation Yrotation
							End Site
							{
								OFFSET 0.0000 -14.7500 0.0000
							}
						}
					}
				}
			}
			JOINT RightCollar
			{
				OFFSET -0.0000 26.2902 0.0000
				CHANNELS 3 Zrotation Xrotation Yrotation
				JOINT RightShoulder
				{
					OFFSET -19.6667 0.0000 0.0000
					CHANNELS 3 Zrotation Xrotation Yrotation
					JOINT RightElbow
					{
						OFFSET -27.2190 0.0000 0.0000
						CHANNELS 3 Zrotation Xrotation Yrotation
						JOINT RightWrist
						{
							OFFSET -30.7431 0.0000 0.0000
							CHANNELS 3 Zrotation Xrotation Yrotation
							End Site
							{
								OFFSET -0.0000 -14.7500 0.0000
							}
						}
					}
				}
			}
		}
	}
	JOINT LeftHip
	{
		OFFSET 11.8000 0.0000 0.0000
		CHANNELS 3 Zrotation Xrotation Yrotation
		JOINT LeftKnee
		{
			OFFSET -0.0000 -39.7832 0.0000
			CHANNELS 3 Zrotation Xrotation Yrotation
			JOINT LeftAnkle
			{
				OFFSET -0.0000 -41.7317 0.0000
				CHANNELS 3 Zrotation Xrotation Yrotation
				End Site
				{
					OFFSET -0.0000 -4.9167 16.7167
				}
			}
		}
	}
	JOINT RightHip
	{
		OFFSET -11.8000 0.0000 0.0000
		CHANNELS 3 Zrotation Xrotation Yrotation
		JOINT RightKnee
		{
			OFFSET -0.0000 -39.7832 0.0000
			CHANNELS 3 Zrotation Xrotation Yrotation
			JOINT RightAnkle
			{
				OFFSET -0.0000 -41.7317 0.0000
				CHANNELS 3 Zrotation Xrotation Yrotation
				End Site
				{
					OFFSET -0.0000 -4.9167 16.7167
				}
			}
		}
	}
}
MOTION
Frames: 11
Frame Time: 0.010000
-7.6537 93.9246 102.8378 354.8481 345.3650 203.0606 1.5167 349.5518 0.9083 3.1168 11.8545 0.4483 347.3779 351.2978 349.7733 8.7013 9.9211 349.9784 340.0468 357.5376 13.9531 321.0354 59.6510 337.3778 13.4419 354.6610 316.7050 90.4848 355.9055 349.7515 26.4718 356.1989 343.8992 39.7748 43.7393 8.6458 335.4881 352.3566 34.1257 269.3660 355.8606 2.8423 349.7150 352.5830 358.0026 357.6351 6.5589 4.0757 349.9837 350.1784 12.2714 347.7219 346.3539 5.1025 11.3468 14.9150 12.5807 347.6808 346.1756 311.7464 
-7.6958 93.9209 102.6147 354.8498 345.5125 202.9990 1.4570 349.5551 0.9287 3.1278 11.8494 0.4711 347.3722 351.4043 349.7347 8.7828 9.9800 349.9166 340.0471 357.5342 13.9571 320.8490 59.5582 337.6257 13.3004 354.7326 316.8506 90.3242 355.9346 349.5805 26.4672 356.1745 343.8263 39.6576 43.8626 8.8039 335.4574 352.3585 34.0360 269.4068 355.8548 2.8844 349.4534 352.2959 357.9162 357.6724 6.5187 4.0680 349.9258 350.2741 12.3995 347.8613 346.6901 5.2296 11.3097 14.7649 12.5309 347.6125 346.1294 311.7643 
-7.7322 93.9117 102.3842 354.8903 345.6713 202.9421 1.4121 349.5406 0.9396 3.1452 11.8424 0.4826 347.4297 351.5395 349.7144 8.8221 9.9897 349.8730 340.0671 357.5469 13.9543 320.6747 59.5212 337.8577 13.1786 354.8060 317.0223 90.1672 355.9487 349.4562 26.4797 356.1724 343.8313 39.6857 43.8239 8.7624 335.5319 352.3889 34.0437 269.4028 355.8626 3.0761 349.2647 352.0123 357.8207 357.6688 6.4626 4.1169 350.1834 350.4048 12.2683 348.0467 347.0527 5.6228 11.3112 14.5277 12.3278 347.6931 346.0141 311.7149 
-7.7717 93.8977 102.1513 354.9362 345.8488 202.8757 1.3803 349.5349 0.9535 3.1557 11.8495 0.4983 347.4749 351.6032 349.6975 8.8471 10.0913 349.8356 340.0810 357.5403 13.9520 320.5111 59.4816 338.0985 13.0821 354.8532 317.1788 90.0077 355.9727 349.3222 26.4945 356.1865 343.8192 39.6891 43.8324 8.7843 335.5569 352.4086 34.0109 269.4287 355.8798 3.1070 349.0981 351.7664 357.7163 357.6221 6.4566 4.3756 350.3407 350.4161 11.8421 348.2468 347.3834 5.7291 11.2696 14.4391 12.3473 347.7068 345.7923 311.6285 
-7.8198 93.8757 101.9087 354.9925 346.0709 202.7901 1.3782 349.5436 0.9782 3.1638 11.8965 0.5219 347.4718 351.6692 349.6631 8.9462 10.1478 349.7807 340.0717 357.5487 13.9454 320.3524 59.3050 338.3677 12.8427 354.9923 317.2910 89.9405 355.9800 349.1184 26.4579 356.1726 343.7955 39.7845 43.9135 8.7935 335.4502 352.3863 33.9252 269.4837 355.8494 3.0600 348.9631 351.5923 357.6552 357.5565 6.5910 4.6423 350.8939 350.4215 11.7853 348.4749 347.7501 5.8755 11.2014 14.3675 12.4869 347.8781 345.5418 311.4868 
-7.8670 93.8526 101.6617 355.0574 346.2868 202.6954 1.3540 349.5325 0.9954 3.2112 11.9386 0.5342 347.4261 351.7602 349.6294 9.0773 10.1813 349.7258 340.0509 357.5376 13.9059 320.0841 59.1425 338.7379 12.6695 355.0751 317.4375 89.7514 355.9641 348.8337 26.4417 356.1490 343.7697 39.7978 44.0128 8.7988 335.3969 352.3894 33.8885 269.4218 355.8293 2.9409 348.8529 351.4288 357.5885 357.5495 6.5354 4.7277 351.1230 350.6467 11.8848 348.7087 348.0941 6.0362 11.1759 14.3233 12.5157 348.0189 345.0803 311.2866 
-7.9187 93.8259 101.4234 355.1169 346.4942 202.6209 1.3207 349.5393 0.9994 3.2353 11.9522 0.5392 347.4408 351.8023 349.6012 9.1442 10.2580 349.6794 340.0585 357.5487 13.8780 319.8540 59.0419 339.0404 12.5116 355.1635 317.5980 89.6750 356.0010 348.6678 26.4222 356.1226 343.6661 39.7110 44.2730 8.9458 335.3128 352.3775 33.7605 269.4688 355.8340 2.8143 348.7375 351.2751 357.4455 357.6217 6.3407 4.3645 351.4367 350.8589 12.0715 348.9139 348.4160 6.1383 11.1677 14.3565 12.4900 348.0465 344.8364 311.2885 
-7.9731 93.7930 101.1782 355.1848 346.7216 202.5413 1.2874 349.5233 1.0048 3.2649 12.0220 0.5413 347.4888 351.8206 349.5764 9.1837 10.3275 349.6399 340.0693 357.5416 13.8674 319.6963 58.9243 339.2636 12.3825 355.2526 317.7628 89.5697 356.0471 348.5618 26.4380 356.1404 343.6717 39.7479 44.1817 8.8886 335.4134 352.4191 33.8460 269.4557 355.8858 2.8261 348.6510 351.1621 357.3112 357.6207 6.3073 4.2948 351.3797 350.9347 12.2682 349.1227 348.7117 6.1991 11.1779 14.4389 12.5810 348.0122 344.6608 311.2169 
-8.0290 93.7555 100.9297 355.2592 346.9587 202.4519 1.2508 349.5280 1.0192 3.2999 12.0525 0.5542 347.5159 351.8735 349.5445 9.2534 10.3896 349.5889 340.0716 357.5571 13.8358 319.5165 58.8260 339.5369 12.1990 355.3401 317.9326 89.5374 356.0466 348.3953 26.4264 356.1442 343.6746 39.8874 44.1417 8.8063 335.4060 352.3940 33.8567 269.4915 355.8779 2.8529 348.5979 351.0666 357.1676 357.5933 6.3312 4.3638 351.3400 350.9451 12.3294 349.3404 348.9808 6.1029 11.1550 14.6045 12.7898 347.9917 344.4392 311.1589 
-8.0863 93.7143 100.6795 355.3395 347.1933 202.3580 1.2253 349.5315 1.0209 3.3041 12.0677 0.5590 347.5560 351.9762 349.5166 9.3581 10.3714 349.5388 340.1050 357.5481 13.8174 319.3508 58.7741 339.7584 12.1118 355.3971 318.1690 89.3452 356.0022 348.2070 26.4188 356.1260 343.6381 39.9641 44.2149 8.7792 335.3876 352.3928 33.8413 269.4941 355.8412 2.8394 348.5541 351.0101 357.0640 357.5949 6.3313 4.4695 351.8659 351.0078 12.1207 349.5554 349.2366 6.1551 11.1830 14.7587 12.8517 347.9950 344.1498 311.0154 
-8.1377 93.6641 100.4190 355.4418 347.4403 202.2548 1.1961 349.5149 1.0157 3.3324 12.1031 0.5535 347.5772 352.0735 349.5003 9.4677 10.3678 349.5016 340.1298 357.5702 13.8245 319.2252 58.7011 339.9419 11.9323 355.4861 318.3792 89.2079 355.9927 347.9423 26.4036 356.1369 343.7052 40.1876 44.0558 8.5610 335.5080 352.4275 33.9479 269.5295 355.8612 3.0332 348.5654 350.9677 356.9785 357.5855 6.3949 4.4327 351.7880 350.9190 12.1856 349.8057 349.5173 6.1792 11.1823 14.8839 12.9518 347.9675 343.9133 310.9669 
